<svg id="svg" version="1.1" xmlns="http://www.w3.org/2000/svg" xmlns:xlink="http://www.w3.org/1999/xlink" width="400" height="400" viewBox="0, 0, 400,400"><g id="svgg"><path id="path0" d="M117.000 100.684 C 110.060 101.673,104.371 106.523,101.321 114.052 C 100.547 115.964,99.959 298.400,100.728 298.400 C 100.914 298.400,109.692 289.764,120.234 279.208 L 139.400 260.017 210.069 260.008 C 279.187 260.000,282.822 259.942,285.800 258.807 C 291.833 256.505,296.232 252.051,298.448 246.000 L 299.400 243.400 299.400 179.800 C 299.400 120.025,299.358 116.084,298.694 114.269 C 296.323 107.781,292.624 104.023,285.948 101.322 C 284.298 100.654,121.525 100.040,117.000 100.684 M260.200 150.000 L 260.200 160.200 200.000 160.200 L 139.800 160.200 139.693 150.408 C 139.634 145.022,139.673 140.386,139.781 140.106 C 139.938 139.697,151.736 139.617,200.088 139.699 L 260.200 139.800 260.200 150.000 M260.205 170.500 C 260.326 170.995,260.375 175.630,260.313 180.800 L 260.200 190.200 200.000 190.200 L 139.800 190.200 139.687 180.800 C 139.625 175.630,139.674 170.995,139.795 170.500 L 140.015 169.600 200.000 169.600 L 259.985 169.600 260.205 170.500 M260.307 210.100 L 260.200 220.200 200.000 220.200 L 139.800 220.200 139.693 210.100 L 139.586 200.000 200.000 200.000 L 260.414 200.000 260.307 210.100 " stroke="none" fill="#f9fafc" fill-rule="evenodd"></path><path id="path1" d="M0.000 200.000 L 0.000 400.000 200.000 400.000 L 400.000 400.000 400.000 200.000 L 400.000 0.000 200.000 0.000 L 0.000 0.000 0.000 200.000 M284.640 99.953 C 285.278 100.148,286.565 100.536,287.500 100.817 C 288.435 101.098,289.200 101.450,289.200 101.600 C 289.200 101.749,289.657 102.080,290.215 102.334 C 292.464 103.359,296.641 107.536,297.666 109.785 C 297.920 110.343,298.251 110.800,298.400 110.800 C 298.550 110.800,298.902 111.565,299.183 112.500 C 299.464 113.435,299.852 114.722,300.047 115.360 C 300.245 116.010,300.400 144.259,300.400 179.640 C 300.400 250.830,300.633 245.679,297.178 250.800 C 294.501 254.768,291.720 257.201,287.505 259.261 C 287.123 259.447,286.369 259.600,285.829 259.600 C 285.289 259.600,284.736 259.780,284.600 260.000 C 284.437 260.264,259.953 260.400,212.448 260.400 L 140.543 260.400 120.686 280.248 C 106.781 294.147,100.645 300.026,100.215 299.861 C 99.511 299.591,99.253 117.658,99.953 115.360 C 100.148 114.722,100.536 113.435,100.817 112.500 C 101.098 111.565,101.450 110.800,101.600 110.800 C 101.749 110.800,102.080 110.343,102.334 109.785 C 103.359 107.536,107.536 103.359,109.785 102.334 C 110.343 102.080,110.800 101.749,110.800 101.600 C 110.800 101.450,111.565 101.097,112.500 100.815 C 113.435 100.534,114.650 100.159,115.200 99.983 C 116.583 99.541,283.190 99.512,284.640 99.953 M140.841 140.950 C 140.521 141.336,140.417 144.185,140.492 150.450 L 140.600 159.400 200.000 159.400 L 259.400 159.400 259.508 150.450 C 259.583 144.185,259.479 141.336,259.159 140.950 C 258.775 140.488,249.339 140.400,200.000 140.400 C 150.661 140.400,141.225 140.488,140.841 140.950 M140.400 180.200 L 140.400 189.600 200.000 189.600 L 259.600 189.600 259.600 180.200 L 259.600 170.800 200.000 170.800 L 140.400 170.800 140.400 180.200 M140.400 209.800 L 140.400 219.200 200.000 219.200 L 259.600 219.200 259.600 209.800 L 259.600 200.400 200.000 200.400 L 140.400 200.400 140.400 209.800 " stroke="none" fill="#0454fc" fill-rule="evenodd"></path><path id="path2" d="M170.100 189.900 C 186.545 189.958,213.455 189.958,229.900 189.900 C 246.345 189.842,232.890 189.795,200.000 189.795 C 167.110 189.795,153.655 189.842,170.100 189.900 M169.900 200.300 C 186.455 200.358,213.545 200.358,230.100 200.300 C 246.655 200.242,233.110 200.195,200.000 200.195 C 166.890 200.195,153.345 200.242,169.900 200.300 M140.000 219.700 C 140.000 219.865,167.000 220.000,200.000 220.000 C 233.000 220.000,260.000 219.865,260.000 219.700 C 260.000 219.535,233.000 219.400,200.000 219.400 C 167.000 219.400,140.000 219.535,140.000 219.700 M298.423 247.332 C 298.171 248.093,297.249 249.770,296.373 251.058 C 295.113 252.910,295.037 253.107,296.006 252.000 C 297.338 250.480,299.439 246.506,299.093 246.160 C 298.976 246.042,298.674 246.570,298.423 247.332 M176.300 260.300 C 195.935 260.357,228.065 260.357,247.700 260.300 C 267.335 260.243,251.270 260.196,212.000 260.196 C 172.730 260.196,156.665 260.243,176.300 260.300 M120.598 279.632 C 110.039 290.210,101.040 299.019,100.600 299.207 C 100.067 299.435,100.001 299.558,100.402 299.575 C 100.732 299.589,109.822 290.780,120.600 280.000 C 131.378 269.220,140.107 260.400,139.997 260.400 C 139.887 260.400,131.158 269.055,120.598 279.632 " stroke="none" fill="#4b84fc" fill-rule="evenodd"></path><path id="path3" d="M116.476 100.340 C 115.968 100.483,153.554 100.600,200.000 100.600 C 246.446 100.600,284.032 100.483,283.524 100.340 C 283.016 100.197,245.430 100.080,200.000 100.080 C 154.570 100.080,116.984 100.197,116.476 100.340 M112.661 101.421 C 107.592 103.280,99.071 113.204,100.940 115.073 C 101.061 115.195,101.285 114.778,101.437 114.147 C 101.835 112.495,103.116 110.045,104.547 108.200 C 107.142 104.855,109.209 103.400,114.400 101.265 C 115.916 100.642,114.420 100.776,112.661 101.421 M285.600 101.265 C 290.791 103.400,292.858 104.855,295.453 108.200 C 296.884 110.045,298.165 112.495,298.563 114.147 C 298.715 114.778,298.939 115.195,299.060 115.073 C 300.970 113.163,292.338 103.213,287.198 101.399 C 285.300 100.730,284.041 100.624,285.600 101.265 M100.250 116.850 C 99.720 119.501,99.968 299.200,100.502 299.200 C 100.777 299.200,109.642 290.545,120.202 279.968 C 130.761 269.390,139.760 260.581,140.200 260.393 L 141.000 260.051 140.200 260.034 C 139.666 260.022,133.031 266.394,120.234 279.208 C 109.692 289.764,100.914 298.400,100.728 298.400 C 100.541 298.400,100.436 257.270,100.494 207.000 C 100.552 156.730,100.578 115.600,100.550 115.600 C 100.523 115.600,100.388 116.163,100.250 116.850 M299.400 179.800 C 299.400 215.136,299.517 243.632,299.660 243.124 C 299.803 242.616,299.920 214.120,299.920 179.800 C 299.920 145.480,299.803 116.984,299.660 116.476 C 299.517 115.968,299.400 144.464,299.400 179.800 M139.781 140.106 C 139.673 140.386,139.634 145.022,139.693 150.408 L 139.800 160.200 200.000 160.200 L 260.200 160.200 260.200 150.000 L 260.200 139.800 200.088 139.699 C 151.736 139.617,139.938 139.697,139.781 140.106 M260.000 150.000 L 260.000 160.000 200.000 160.000 L 140.000 160.000 140.000 150.000 L 140.000 140.000 200.000 140.000 L 260.000 140.000 260.000 150.000 M139.795 170.500 C 139.674 170.995,139.625 175.630,139.687 180.800 L 139.800 190.200 200.000 190.200 L 260.200 190.200 260.313 180.800 C 260.375 175.630,260.326 170.995,260.205 170.500 L 259.985 169.600 200.000 169.600 L 140.015 169.600 139.795 170.500 M259.907 180.100 L 259.800 189.800 200.000 189.800 L 140.200 189.800 140.093 180.100 L 139.986 170.400 200.000 170.400 L 260.014 170.400 259.907 180.100 M139.789 210.000 L 139.800 220.200 200.000 220.200 L 260.200 220.200 260.211 210.100 L 260.221 200.000 260.104 210.000 L 259.986 220.000 200.000 220.000 L 140.014 220.000 139.896 209.900 L 139.779 199.800 139.789 210.000 M298.251 246.470 C 296.374 251.808,291.295 256.928,286.243 258.572 C 285.826 258.708,285.586 258.920,285.710 259.043 C 287.830 261.164,299.855 248.477,299.116 244.900 C 299.052 244.591,298.663 245.298,298.251 246.470 M282.400 259.600 L 281.400 259.920 282.400 259.920 C 282.950 259.920,283.850 259.776,284.400 259.600 L 285.400 259.280 284.400 259.280 C 283.850 259.280,282.950 259.424,282.400 259.600 " stroke="none" fill="#84acfc" fill-rule="evenodd"></path><path id="path4" d="M115.515 99.928 C 115.138 100.078,153.156 100.200,200.000 100.200 C 246.844 100.200,284.862 100.078,284.485 99.928 C 283.589 99.573,116.411 99.573,115.515 99.928 M111.900 100.920 C 111.295 101.159,110.800 101.506,110.800 101.691 C 110.800 101.877,111.194 101.817,111.677 101.559 C 112.159 101.301,113.014 100.950,113.577 100.779 C 114.343 100.547,114.399 100.471,113.800 100.477 C 113.360 100.481,112.505 100.681,111.900 100.920 M286.423 100.779 C 286.986 100.950,287.841 101.301,288.323 101.559 C 288.806 101.817,289.200 101.878,289.200 101.694 C 289.200 101.311,286.824 100.383,285.972 100.434 C 285.657 100.453,285.861 100.609,286.423 100.779 M109.300 102.488 C 108.805 102.727,108.400 103.079,108.400 103.270 C 108.400 103.462,108.850 103.324,109.400 102.963 C 110.867 102.002,110.816 101.757,109.300 102.488 M289.600 102.163 C 289.600 102.243,290.050 102.603,290.600 102.963 C 291.150 103.324,291.600 103.463,291.600 103.273 C 291.600 103.084,291.150 102.723,290.600 102.473 C 290.050 102.222,289.600 102.083,289.600 102.163 M105.980 105.066 C 105.088 105.872,104.162 106.907,103.923 107.366 C 103.680 107.832,104.076 107.583,104.823 106.800 C 105.557 106.030,106.617 104.995,107.179 104.500 C 107.741 104.006,108.066 103.601,107.901 103.600 C 107.737 103.600,106.872 104.259,105.980 105.066 M292.821 104.500 C 293.383 104.995,294.443 106.030,295.177 106.800 C 295.924 107.583,296.320 107.832,296.077 107.366 C 295.604 106.458,292.584 103.600,292.099 103.600 C 291.934 103.601,292.259 104.006,292.821 104.500 M102.473 109.400 C 102.222 109.950,102.083 110.400,102.163 110.400 C 102.243 110.400,102.603 109.950,102.963 109.400 C 103.324 108.850,103.463 108.400,103.273 108.400 C 103.084 108.400,102.723 108.850,102.473 109.400 M297.037 109.400 C 297.397 109.950,297.757 110.400,297.837 110.400 C 297.917 110.400,297.778 109.950,297.527 109.400 C 297.277 108.850,296.916 108.400,296.727 108.400 C 296.537 108.400,296.676 108.850,297.037 109.400 M100.799 112.402 C 100.509 113.283,100.390 114.123,100.535 114.269 C 100.681 114.414,100.800 114.224,100.800 113.847 C 100.800 113.469,101.075 112.629,101.410 111.980 C 101.746 111.331,101.865 110.800,101.674 110.800 C 101.484 110.800,101.090 111.521,100.799 112.402 M298.590 111.980 C 298.925 112.629,299.200 113.469,299.200 113.847 C 299.200 114.224,299.319 114.414,299.465 114.269 C 299.807 113.926,298.781 110.800,298.326 110.800 C 298.135 110.800,298.254 111.331,298.590 111.980 M99.852 115.700 C 99.719 116.195,99.608 157.781,99.605 208.113 C 99.599 309.587,99.379 301.703,102.136 298.766 L 103.400 297.418 102.178 298.509 C 101.506 299.109,100.740 299.600,100.475 299.600 C 100.101 299.600,100.016 279.015,100.097 207.200 C 100.153 156.380,100.176 114.800,100.147 114.800 C 100.117 114.800,99.985 115.205,99.852 115.700 M299.800 179.800 C 299.800 215.534,299.922 244.462,300.072 244.085 C 300.221 243.708,300.344 214.780,300.344 179.800 C 300.344 144.820,300.221 115.892,300.072 115.515 C 299.922 115.138,299.800 144.066,299.800 179.800 M140.441 140.550 C 140.121 140.936,140.017 143.889,140.093 150.450 L 140.200 159.800 200.000 159.800 L 259.800 159.800 259.907 150.450 C 259.983 143.889,259.879 140.936,259.559 140.550 C 258.876 139.727,141.124 139.727,140.441 140.550 M259.159 140.950 C 259.479 141.336,259.583 144.185,259.508 150.450 L 259.400 159.400 200.000 159.400 L 140.600 159.400 140.492 150.450 C 140.417 144.185,140.521 141.336,140.841 140.950 C 141.225 140.488,150.661 140.400,200.000 140.400 C 249.339 140.400,258.775 140.488,259.159 140.950 M140.180 170.907 C 140.073 171.188,140.037 175.553,140.100 180.609 L 140.216 189.800 140.308 180.300 L 140.400 170.800 199.993 170.800 L 259.586 170.800 259.704 180.200 L 259.822 189.600 259.811 180.100 L 259.800 170.600 200.088 170.499 C 151.992 170.417,140.338 170.497,140.180 170.907 M140.189 209.900 L 140.200 219.400 200.000 219.400 L 259.800 219.400 259.811 209.900 L 259.822 200.400 259.704 209.800 L 259.586 219.200 200.000 219.200 L 140.414 219.200 140.296 209.800 L 140.178 200.400 140.189 209.900 M290.629 257.029 C 290.205 257.338,289.936 257.669,290.030 257.763 C 290.124 257.857,290.548 257.681,290.971 257.371 C 291.395 257.062,291.664 256.731,291.570 256.637 C 291.476 256.543,291.052 256.719,290.629 257.029 M132.993 267.700 L 128.600 272.200 133.100 267.807 C 135.575 265.391,137.600 263.366,137.600 263.307 C 137.600 263.018,137.074 263.520,132.993 267.700 M117.393 283.300 L 113.000 287.800 117.500 283.407 C 119.975 280.991,122.000 278.966,122.000 278.907 C 122.000 278.618,121.474 279.120,117.393 283.300 M104.778 295.900 L 103.400 297.400 104.900 296.022 C 106.296 294.738,106.584 294.400,106.278 294.400 C 106.212 294.400,105.537 295.075,104.778 295.900 " stroke="none" fill="#246cfc" fill-rule="evenodd"></path></g></svg>